<svg width="245" height="146" viewBox="0 0 245 146" fill="none" xmlns="http://www.w3.org/2000/svg">
<path d="M233.37 7.20989C235.766 29.9449 236.978 52.7891 237 75.6499C237 98.4899 234.11 128.65 233.06 138.82H10.89C10.27 133.93 9.16002 124.49 8.49002 114.67C6.66002 87.8999 9.90005 84.1899 10.02 84.0599C11.51 82.7599 12.16 82.7199 12.23 82.7199C13.2159 83.082 14.1275 83.6208 14.9201 84.3099C17.4601 86.1599 20.92 88.6899 26.51 88.6899C29.0127 88.657 31.4927 88.211 33.85 87.3699C42.77 84.3699 47.85 77.0799 47.49 67.9299C47.09 58.5299 40.8801 49.9299 33.0401 48.0199C31.1553 47.5291 29.2176 47.2705 27.27 47.2499C24.0004 47.3059 20.8005 48.2049 17.98 49.8599C15.7291 51.2025 13.1788 51.9621 10.5601 52.0699C10.2901 51.7699 9.44007 50.5599 8.79007 46.6699C8.21324 42.5177 7.91256 38.3319 7.89004 34.1399C7.68025 25.1746 8.38725 16.2114 10 7.38989C37.35 7.63989 77.9201 7.78989 119.55 7.78989C170.49 7.78989 212.41 7.56989 233.42 7.20989H233.37ZM237.02 3.13989C215.74 3.57989 168.34 3.78989 119.55 3.78989C77.8401 3.78989 35.1101 3.63989 6.78006 3.35989C6.78006 3.35989 3.53997 15.7999 3.93997 34.2299C4.17997 45.2299 5.07999 56.0699 10.46 56.0699H10.5601C18.8601 55.8499 20.67 51.2499 27.32 51.2499C28.9437 51.2717 30.5588 51.4899 32.13 51.8999C44 54.8999 50.2 77.6099 32.61 83.5799C30.6836 84.2735 28.657 84.6484 26.61 84.6899C19.15 84.6899 16.53 78.6899 12.33 78.6899C10.96 78.6899 9.42001 79.3299 7.48001 81.0299C-0.299993 87.8399 7.48001 142.79 7.48001 142.79H236.75C236.75 142.79 241 104 241 75.6499C240.977 51.4254 239.642 27.2199 237 3.13989H237.02Z" fill="url(#paint0_linear)"/>
<path d="M227.44 12.1599V12.2099C229.738 33.1884 230.896 54.276 230.91 75.3799C230.91 97.2199 227.91 126.38 227.15 133.83H20.8901C20.3701 130 19.15 120.27 18.47 110.18C16.88 86.7599 19.58 82.5099 20.47 81.7599C21.3019 80.8856 22.405 80.3182 23.6 80.1499C24.6 80.1499 25.6801 80.9199 27.0401 81.8899C29.1901 83.4199 32.1301 85.5199 36.6701 85.5199C38.7726 85.4883 40.8561 85.1168 42.84 84.4199C50.26 81.9399 54.51 75.9999 54.2 68.5299C53.88 60.7299 48.74 53.6599 42.2 52.0699C40.6088 51.6576 38.9736 51.4394 37.33 51.4199C34.6056 51.4696 31.9399 52.2204 29.59 53.5999C27.2439 54.9513 24.5968 55.6939 21.8901 55.7599C19.5201 55.7599 18.1901 49.8099 17.8901 38.0599C17.6438 29.4318 18.3751 20.8035 20.07 12.3399C45.07 12.5699 82.8801 12.7099 121.68 12.7099C169.55 12.7099 208.68 12.4999 227.38 12.1599H227.44ZM229.18 10.1599C209.7 10.5499 166.33 10.7399 121.68 10.7399C83.5101 10.7399 44.41 10.5999 18.48 10.3499C18.48 10.3499 15.4801 21.5399 15.8901 38.1399C16.1001 47.9899 16.8901 57.7899 21.8901 57.7899H21.99C29.58 57.5899 31.23 53.4499 37.33 53.4499C38.8117 53.4693 40.2857 53.6674 41.72 54.0399C52.58 56.6899 58.2601 77.1799 42.1601 82.5499C40.3827 83.179 38.5152 83.5167 36.6301 83.5499C29.8001 83.5499 27.4001 78.1799 23.5601 78.1799C22.3001 78.1799 20.89 78.7499 19.12 80.2799C12 86.4099 19.12 135.86 19.12 135.86H229C229 135.86 233 100.86 233 75.4099C232.976 53.609 231.75 31.826 229.33 10.1599H229.18Z" fill="url(#paint1_linear)"/>
<path d="M239.37 1.84007C239.37 2.15007 239.45 2.55007 239.5 3.07007C242.088 27.2072 243.393 51.4646 243.41 75.7401C243.41 102.23 239.7 138.06 239.05 144.14H4.93012C2.69012 127.88 -1.39997 87.4601 4.72003 82.0701C6.37003 80.6201 7.79011 79.9101 9.05011 79.9101C10.5701 79.9101 11.9301 80.9101 13.6401 82.1501C16.0401 83.9001 19.0301 86.0801 23.7401 86.0801C25.9743 86.0406 28.187 85.6352 30.2901 84.8801C38.0901 82.2201 42.54 75.8801 42.21 67.8801C41.85 59.5001 36.48 51.8801 29.71 50.2201C28.0148 49.7758 26.2723 49.5374 24.5201 49.5101C21.647 49.5799 18.8416 50.3967 16.3801 51.8801C13.6052 53.5067 10.4652 54.4078 7.25006 54.5001H7.17011C1.93011 54.5001 1.60002 39.3701 1.46002 32.9101C1.16233 22.5498 2.07186 12.19 4.17011 2.04007C32.2901 2.31007 75.2701 2.47007 119.41 2.47007C174.23 2.47007 218.89 2.23007 239.41 1.83007L239.37 1.84007ZM240.32 0.830068C218.42 1.28007 169.66 1.49007 119.45 1.49007C76.54 1.49007 32.58 1.34007 3.45002 1.06007C3.45002 1.06007 0.120093 13.9001 0.530093 32.9501C0.780093 44.2601 1.71005 55.5201 7.24005 55.5201H7.35004C15.89 55.2901 17.74 50.5201 24.59 50.5201C26.2784 50.5398 27.9578 50.7682 29.59 51.2001C41.8 54.2001 48.18 77.7701 30.08 83.9301C28.0847 84.6554 25.9828 85.044 23.8601 85.0801C16.18 85.0801 13.4901 78.9101 9.17011 78.9101C7.76011 78.9101 6.17011 79.5701 4.17011 81.3201C-3.82989 88.3701 4.17011 145.14 4.17011 145.14H240C240 145.14 244.46 105.02 244.46 75.7401C244.413 50.7098 243.018 25.7002 240.28 0.820068L240.32 0.830068Z" fill="url(#paint2_linear)"/>
<defs>
<linearGradient id="paint0_linear" x1="338" y1="-185" x2="-1130.37" y2="-626.016" gradientUnits="userSpaceOnUse">
<stop offset="0.231157" stop-color="#9537F3"/>
<stop offset="0.500099" stop-color="#139CFF"/>
<stop offset="0.730366" stop-color="#6960FA"/>
<stop offset="0.892483" stop-color="#D219F2"/>
</linearGradient>
<linearGradient id="paint1_linear" x1="338" y1="-185" x2="-1152.27" y2="-610.411" gradientUnits="userSpaceOnUse">
<stop offset="0.231157" stop-color="#9537F3"/>
<stop offset="0.500099" stop-color="#139CFF"/>
<stop offset="0.730366" stop-color="#6960FA"/>
<stop offset="0.892483" stop-color="#D219F2"/>
</linearGradient>
<linearGradient id="paint2_linear" x1="334" y1="-185" x2="-1127.07" y2="-622.899" gradientUnits="userSpaceOnUse">
<stop offset="0.231157" stop-color="#9537F3"/>
<stop offset="0.500099" stop-color="#139CFF"/>
<stop offset="0.730366" stop-color="#6960FA"/>
<stop offset="0.892483" stop-color="#D219F2"/>
</linearGradient>
</defs>
</svg>
