<svg width="676" height="146" viewBox="0 0 676 146" fill="none" xmlns="http://www.w3.org/2000/svg">
<path d="M18.0002 7.17C58.3902 7.48 233 7.68 383 7.68C535.33 7.68 638.17 7.5 662.35 7.19C664.308 15.7436 665.599 24.4364 666.21 33.19C666.87 45.78 664.82 54.04 660.43 56.45C660.368 56.4868 660.301 56.5138 660.23 56.53C659.257 56.2426 658.328 55.822 657.47 55.28C653.31 52.7609 648.544 51.4166 643.68 51.39C641.843 51.3972 640.01 51.5578 638.2 51.87C629.67 53.3 625 64 625.44 73.4C625.94 84.51 632.94 92.21 643.26 93C643.89 93 644.55 93.07 645.26 93.07C649.223 92.9398 653.152 92.2978 656.95 91.16C658.921 90.563 660.949 90.1742 663 90C664.09 90 664.25 90.25 664.45 90.56C664.87 91.23 665.59 93.07 665.59 97.83C665.59 105.58 662.8 129.74 661.71 138.83H18.2102C12.1832 117.401 9.05539 95.2603 8.91016 73C8.91016 36.18 15.5202 14.13 17.9902 7.19L18.0002 7.17ZM665.57 3.19C647.35 3.57 520.4 3.73 383 3.73C222.79 3.73 48.3502 3.51 15.2502 3.19C15.2502 3.19 4.91016 26.37 4.91016 73.03C4.98658 96.6856 8.46898 120.207 15.2502 142.87H665.25C665.25 142.87 669.58 107.79 669.58 97.87C669.58 88.45 667 86 663 86C658.48 86 652.06 89.09 645.22 89.09C644.667 89.09 644.117 89.07 643.57 89.03C623.7 87.5 627.29 57.79 638.88 55.83C640.469 55.5515 642.078 55.4077 643.69 55.4C652.9 55.4 656.47 60.54 660.24 60.54C660.987 60.5339 661.72 60.3377 662.37 59.97C678.17 51.29 665.62 4.48 665.58 3.16L665.57 3.19Z" fill="url(#paint0_linear)"/>
<path d="M26 12.14C62.45 12.43 234.29 12.61 381.66 12.61C533.1 12.61 634.14 12.44 654.35 12.15V12.3C662.9 47.9 656.48 57.13 651.89 59.47C651.536 59.6599 651.142 59.7627 650.74 59.77C649.448 59.5718 648.209 59.1124 647.1 58.42C643.308 56.2751 639.026 55.1453 634.67 55.14C632.995 55.147 631.323 55.2841 629.67 55.55C622.46 56.68 618.49 65.38 618.82 73.15C619.13 80.49 623.38 88.62 634.39 89.4C634.957 89.44 635.537 89.46 636.13 89.46C639.806 89.3413 643.456 88.784 647 87.8C649.099 87.206 651.254 86.8307 653.43 86.68C655.18 86.68 657.82 86.68 657.82 95.33C657.82 102.83 654.73 127.11 653.82 133.83H26.14C20.0049 114.13 16.8138 93.6324 16.67 73C16.67 37.41 24 17 26 12.14ZM656 10.14C638.31 10.48 515.08 10.62 381.71 10.62C226.19 10.62 56.87 10.43 24.71 10.14C24.71 10.14 14.71 30.99 14.71 72.99C14.7878 94.3299 18.1609 115.53 24.71 135.84H655.64C655.64 135.84 659.85 104.27 659.85 95.34C659.85 86.92 657.39 84.69 653.46 84.69C649.06 84.69 642.84 87.47 636.19 87.47C635.66 87.47 635.13 87.47 634.6 87.47C615.3 86 618.79 59.29 630 57.52C631.545 57.2762 633.106 57.1492 634.67 57.14C643.61 57.14 647.07 61.77 650.74 61.77C651.458 61.7628 652.164 61.5845 652.8 61.25C668.18 53.44 656 11.32 656 10.13V10.14Z" fill="url(#paint1_linear)"/>
<path d="M11.16 1C47.7 1.34 228.62 1.55 383.66 1.55C544.25 1.55 650.66 1.35 669.58 1.01C669.65 1.3 669.73 1.67 669.84 2.18C672.011 11.7221 673.442 21.4176 674.12 31.18C674.88 46.04 672.37 55.18 666.66 58.44C666.167 58.7728 665.594 58.9663 665 59C663.77 59 662.43 58.26 660.75 57.31C656.991 54.9384 652.644 53.6638 648.2 53.63C646.503 53.6364 644.81 53.7903 643.14 54.09C636.22 55.29 632.36 65.09 632.75 73.38C633.12 81.23 637.32 89.92 648 90.77C648.57 90.77 649.16 90.84 649.75 90.84C653.517 90.6937 657.249 90.0549 660.85 88.94C663.107 88.2284 665.44 87.7821 667.8 87.61C670.8 87.61 673.49 88.98 673.49 98.97C673.49 108.27 669.87 139.35 669.2 144.97H11.2C4.54839 121.554 1.11686 97.3418 1 73C1 29.2 9.59 5.06 11.16 1ZM670.41 0C651.92 0.39 523.1 0.56 383.66 0.56C221.09 0.56 44.07 0.34 10.49 0C10.49 0 0 24.22 0 73C0.070463 97.7038 3.60144 122.276 10.49 146H670.09C670.09 146 674.49 109.34 674.49 99C674.49 89.22 671.91 86.64 667.8 86.64C663.21 86.64 656.7 89.87 649.8 89.87C649.25 89.87 648.69 89.87 648.13 89.8C627.96 88.21 631.61 57.15 643.36 55.1C644.974 54.8133 646.61 54.6661 648.25 54.66C657.6 54.66 661.25 60.03 665.05 60.03C665.807 60.0223 666.548 59.8153 667.2 59.43C683.2 50.37 670.5 1.43 670.46 0.07L670.41 0Z" fill="url(#paint2_linear)"/>
<defs>
<linearGradient id="paint0_linear" x1="1508" y1="-185" x2="-415.288" y2="881.069" gradientUnits="userSpaceOnUse">
<stop offset="0.231157" stop-color="#9537F3"/>
<stop offset="0.500099" stop-color="#139CFF"/>
<stop offset="0.730366" stop-color="#6960FA"/>
<stop offset="0.892483" stop-color="#D219F2"/>
</linearGradient>
<linearGradient id="paint1_linear" x1="1508" y1="-189" x2="-335.815" y2="1002.69" gradientUnits="userSpaceOnUse">
<stop offset="0.231157" stop-color="#9537F3"/>
<stop offset="0.500099" stop-color="#139CFF"/>
<stop offset="0.730366" stop-color="#6960FA"/>
<stop offset="0.892483" stop-color="#D219F2"/>
</linearGradient>
<linearGradient id="paint2_linear" x1="1508" y1="-189" x2="-444.566" y2="840.84" gradientUnits="userSpaceOnUse">
<stop offset="0.231157" stop-color="#9537F3"/>
<stop offset="0.500099" stop-color="#139CFF"/>
<stop offset="0.730366" stop-color="#6960FA"/>
<stop offset="0.892483" stop-color="#D219F2"/>
</linearGradient>
</defs>
</svg>
