<svg width="282" height="146" viewBox="0 0 282 146" fill="none" xmlns="http://www.w3.org/2000/svg">
<path d="M59.5001 12.1301C67.0601 12.1301 79.5001 12.1301 94.7401 12.2201C121.56 12.3101 154.93 12.4101 182.66 12.4101C206.18 12.4101 221.32 12.3401 228.72 12.1801C228.39 16.3401 227.72 25.7001 227.72 35.1001C227.72 58.9001 231.72 62.7501 235.2 63.4401C235.832 63.5689 236.475 63.6359 237.12 63.6401C240.12 63.6401 242.19 62.0401 243.98 60.6401C245.98 59.1001 247.77 57.6401 251.2 57.6401C251.55 57.6401 251.92 57.6401 252.29 57.6401C255.49 57.9001 258.41 60.3101 260.29 64.2501C262.95 69.7301 262.9 76.4101 260.17 80.5101C257.44 84.6101 254.28 86.7401 250.7 86.7401C247.89 86.7401 244.6 85.4801 240.94 83.0001C239.713 82.1003 238.241 81.5947 236.72 81.5501C231.49 81.5501 228.83 87.7501 228.83 99.9701V134.59H59.46C59.74 132.06 59.9201 128.07 60.0001 122.65C60.1532 114.177 59.8494 105.701 59.09 97.2601C57.93 85.8801 53.98 80.1001 47.35 80.1001C45.8112 80.1255 44.2871 80.406 42.84 80.9301L42.1701 81.1601C39.6986 82.147 37.0788 82.7115 34.4201 82.8301C30.4201 82.8301 26.9601 81.0101 23.9201 77.2501C20.4701 72.9801 18.9201 63.8701 22.1501 57.1201C23.0902 55.0178 24.6434 53.2485 26.6063 52.044C28.5691 50.8395 30.85 50.2561 33.1501 50.3701H33.22C42.02 50.3701 44.5401 53.1401 46.7601 55.5501C48.4301 57.3701 50.32 59.4201 54.21 59.4201C54.7887 59.4175 55.3665 59.3775 55.94 59.3001C56.7266 59.1837 57.4801 58.9038 58.1518 58.4784C58.8235 58.0529 59.3986 57.4914 59.84 56.8301C65.52 48.9601 61.0901 20.9701 59.5001 12.0701V12.1301ZM230.9 10.0701C223.9 10.2801 205.34 10.3501 182.66 10.3501C137.29 10.3501 75.49 10.0701 57.1 10.0701C57.1 10.0701 65.9801 55.9601 55.6701 57.3201C55.1862 57.3855 54.6984 57.4189 54.21 57.4201C46.77 57.4201 49.45 48.4201 33.21 48.4201H33.1301C16.4701 48.4201 15.57 70.1801 22.35 78.5601C26.35 83.4701 30.5701 84.8801 34.4001 84.8801C37.5146 84.7298 40.5812 84.0536 43.47 82.8801C44.7101 82.4359 46.0132 82.1929 47.33 82.1601C51.42 82.1601 55.81 85.0601 57.08 97.5201C58.72 113.65 57.84 135.44 57.08 136.65H230.88V100C230.88 87.4601 233.67 83.5801 236.77 83.5801C237.889 83.6329 238.968 84.0157 239.87 84.6801C243.87 87.4201 247.51 88.7701 250.75 88.7701C255.07 88.7701 258.75 86.3701 261.89 81.6501C267.66 72.9901 262.48 56.4901 252.47 55.6501C252.04 55.6501 251.62 55.6001 251.22 55.6001C243.68 55.6001 242.33 61.6001 237.14 61.6001C236.626 61.5972 236.114 61.5436 235.61 61.4401C226.26 59.5701 230.88 10.0901 230.88 10.0901L230.9 10.0701Z" fill="url(#paint0_linear)"/>
<path d="M46.2999 1.82007C54.7299 1.82007 69.5599 1.87007 88.1099 1.93007C118.74 2.03007 156.87 2.15007 188.54 2.15007C217.02 2.15007 234.73 2.05007 242.54 1.85007C242.23 5.50007 241.32 17.4501 241.33 29.4701C241.33 49.4701 243.81 59.7001 248.84 60.7101C249.479 60.8384 250.128 60.9053 250.78 60.9101C253.78 60.9101 255.85 59.3001 257.78 57.7401C260.08 55.9301 262.46 54.0501 266.83 54.0501C267.26 54.0501 267.72 54.0501 268.17 54.1001C272.28 54.4401 276 57.4501 278.38 62.3601C281.63 69.0501 281.55 77.2701 278.18 82.3601C274.81 87.4501 270.84 90.0801 266.29 90.0801C262.81 90.0801 258.82 88.5701 254.42 85.5701C253.228 84.6917 251.8 84.1901 250.32 84.1301C246.8 84.1301 242.59 87.5701 242.59 103.97V144.97H46.3198C47.2498 138.83 47.6898 116.71 46.0899 100.97C44.8399 88.6901 40.7599 82.4601 33.9699 82.4601C32.3517 82.4855 30.7493 82.783 29.2299 83.3401L28.4598 83.6001C25.5043 84.7832 22.3703 85.4594 19.1898 85.6001C14.1898 85.6001 9.92983 83.3501 6.18983 78.7301C1.46983 72.8601 0.479916 61.6401 4.02992 54.2201C5.86992 50.3601 9.74988 45.7701 17.7399 45.7701H17.8198C28.4198 45.7701 31.5099 49.1801 34.2199 52.1401C36.1199 54.2101 37.9099 56.1401 41.7899 56.1401C42.3922 56.1391 42.9936 56.0956 43.5899 56.0101C44.3154 55.9057 45.0102 55.6474 45.6277 55.2524C46.2452 54.8574 46.771 54.335 47.1699 53.7201C53.7099 44.6501 47.5999 8.96007 46.2899 1.82007H46.2999ZM243.64 0.820068C235.64 1.06007 214.44 1.15007 188.53 1.15007C136.7 1.15007 66.0999 0.820068 45.0899 0.820068C45.0899 0.820068 55.2298 53.4701 43.4598 55.0201C42.9064 55.0967 42.3486 55.1368 41.7899 55.1401C33.2899 55.1401 36.3599 44.8301 17.7899 44.7501H17.7098C-1.29015 44.7501 -2.36011 69.7501 5.37989 79.3301C9.91989 84.9601 14.7799 86.5801 19.1499 86.5801C23.2499 86.5801 26.9299 85.1601 29.5099 84.2801C30.9294 83.7704 32.4221 83.4935 33.9299 83.4601C38.5999 83.4601 43.5999 86.7701 45.0599 101.08C46.9399 119.58 45.9299 144.57 45.0599 145.96H243.61V104C243.61 89.6101 246.8 85.1601 250.34 85.1601C251.62 85.2229 252.852 85.665 253.88 86.4301C258.49 89.5701 262.61 91.1101 266.31 91.1101C271.25 91.1101 275.44 88.3601 279.03 82.9501C285.62 73.0101 279.71 54.0801 268.28 53.1601C267.78 53.1601 267.28 53.1001 266.85 53.1001C258.23 53.1001 256.69 59.9601 250.76 59.9601C250.175 59.9556 249.593 59.8953 249.02 59.7801C238.33 57.6301 243.61 0.870068 243.61 0.870068L243.64 0.820068Z" fill="url(#paint1_linear)"/>
<path d="M53.6801 7.99995L90.1899 8.09995C119.62 8.19995 156.25 8.30995 186.68 8.30995C210.55 8.30995 226.56 8.23995 235.28 8.09995C234.9 13.26 234.37 22.2299 234.38 31.41C234.38 53.1 237.29 62.93 244.04 64.2799C244.85 64.4452 245.674 64.529 246.5 64.5299C250.5 64.5299 253.06 62.5299 255.14 60.8499C257.22 59.1699 258.81 57.97 261.95 57.97C262.29 57.97 262.64 57.97 262.95 57.97C266.95 58.3 269.43 62.4399 270.29 64.2099C272.9 69.59 272.89 76.34 270.29 80.27C266.68 85.67 263.49 86.27 261.4 86.27C258.67 86.27 255.4 84.99 251.69 82.48C250.048 81.2853 248.08 80.6191 246.05 80.57C239.11 80.57 235.59 87.9799 235.59 102.57V138.76H53.46C53.65 136.26 53.8 132.67 53.88 127.48C54.0493 118.112 53.7155 108.742 52.88 99.41C51.16 82.51 43.95 78.96 38.21 78.96C36.3243 78.9886 34.4563 79.3264 32.6801 79.96L31.9301 80.22C29.4038 81.249 26.7238 81.8506 24 82C20.1 82 16.89 80.27 13.88 76.55C10.5 72.38 8.97004 63.0599 12.16 56.3699C14.16 52.13 17.7 49.9799 22.61 49.9799H22.6801C31.5401 49.9799 33.92 52.5999 36.21 55.09C38.21 57.24 40.66 59.9199 45.71 59.9199C46.4225 59.9177 47.1341 59.8676 47.84 59.77C48.9497 59.6151 50.0144 59.2288 50.9653 58.6362C51.9162 58.0437 52.7321 57.2579 53.36 56.33C59.6 47.67 55.7801 20.2 53.6801 7.94995V7.99995ZM239.68 3.94995C232.01 4.17995 211.62 4.25995 186.68 4.25995C136.89 4.25995 69.07 3.94995 48.88 3.94995C48.88 3.94995 58.63 54.32 47.32 55.81C46.7859 55.8784 46.2483 55.9152 45.71 55.9199C37.55 55.9199 40.49 46.0499 22.71 45.9799H22.63C4.34001 45.9799 3.35004 69.87 10.79 79.07C15.14 84.45 19.79 86 24.02 86C27.96 86 31.48 84.64 34.02 83.8C35.3804 83.3058 36.8129 83.0389 38.26 83.01C42.75 83.01 47.56 86.19 48.95 99.87C50.76 117.57 49.8 141.48 48.95 142.81H239.7V102.63C239.7 88.86 242.76 84.63 246.16 84.63C247.389 84.6901 248.573 85.1148 249.56 85.85C253.99 88.85 257.95 90.33 261.56 90.33C266.3 90.33 270.32 87.7 273.78 82.51C280.11 73.01 274.43 54.8999 263.44 54.0099C262.97 54.0099 262.51 54.0099 262.07 54.0099C253.79 54.0099 252.31 60.57 246.62 60.57C246.056 60.5689 245.493 60.512 244.94 60.4C234.56 58.26 239.63 3.99995 239.63 3.99995L239.68 3.94995Z" fill="url(#paint2_linear)"/>
<defs>
<linearGradient id="paint0_linear" x1="624" y1="-189" x2="-1009.09" y2="-521.628" gradientUnits="userSpaceOnUse">
<stop offset="0.231157" stop-color="#9537F3"/>
<stop offset="0.500099" stop-color="#139CFF"/>
<stop offset="0.730366" stop-color="#6960FA"/>
<stop offset="0.892483" stop-color="#D219F2"/>
</linearGradient>
<linearGradient id="paint1_linear" x1="620" y1="-185" x2="-1000.66" y2="-530.229" gradientUnits="userSpaceOnUse">
<stop offset="0.231157" stop-color="#9537F3"/>
<stop offset="0.500099" stop-color="#139CFF"/>
<stop offset="0.730366" stop-color="#6960FA"/>
<stop offset="0.892483" stop-color="#D219F2"/>
</linearGradient>
<linearGradient id="paint2_linear" x1="620" y1="-193" x2="-1015.69" y2="-518.328" gradientUnits="userSpaceOnUse">
<stop offset="0.231157" stop-color="#9537F3"/>
<stop offset="0.500099" stop-color="#139CFF"/>
<stop offset="0.730366" stop-color="#6960FA"/>
<stop offset="0.892483" stop-color="#D219F2"/>
</linearGradient>
</defs>
</svg>
