<svg width="245" height="146" viewBox="0 0 245 146" fill="none" xmlns="http://www.w3.org/2000/svg">
<path d="M233.37 7.21C235.766 29.945 236.978 52.7892 237 75.65C237 98.49 234.11 128.65 233.06 138.82H10.89C10.27 133.93 9.16002 124.49 8.49002 114.67C6.66002 87.9 9.90005 84.19 10.02 84.06C11.51 82.76 12.16 82.72 12.23 82.72C13.2159 83.0821 14.1275 83.6209 14.9201 84.31C17.4601 86.16 20.92 88.69 26.51 88.69C29.0127 88.6571 31.4927 88.2111 33.85 87.37C42.77 84.37 47.85 77.08 47.49 67.93C47.09 58.53 40.8801 49.93 33.0401 48.02C31.1553 47.5292 29.2176 47.2706 27.27 47.25C24.0004 47.306 20.8005 48.205 17.98 49.86C15.7291 51.2026 13.1788 51.9622 10.5601 52.07C10.2901 51.77 9.44007 50.56 8.79007 46.67C8.21324 42.5178 7.91256 38.332 7.89004 34.14C7.68025 25.1747 8.38725 16.2115 10 7.39C37.35 7.64 77.9201 7.79 119.55 7.79C170.49 7.79 212.41 7.57 233.42 7.21H233.37ZM237.02 3.14C215.74 3.58 168.34 3.79 119.55 3.79C77.8401 3.79 35.1101 3.64 6.78006 3.36C6.78006 3.36 3.53997 15.8 3.93997 34.23C4.17997 45.23 5.07999 56.07 10.46 56.07H10.5601C18.8601 55.85 20.67 51.25 27.32 51.25C28.9437 51.2718 30.5588 51.49 32.13 51.9C44 54.9 50.2 77.61 32.61 83.58C30.6836 84.2736 28.657 84.6485 26.61 84.69C19.15 84.69 16.53 78.69 12.33 78.69C10.96 78.69 9.42001 79.33 7.48001 81.03C-0.299993 87.84 7.48001 142.79 7.48001 142.79H236.75C236.75 142.79 241 104 241 75.65C240.977 51.4255 239.642 27.22 237 3.14H237.02Z" fill="url(#paint0_linear)"/>
<path d="M227.44 12.16V12.21C229.738 33.1884 230.896 54.2761 230.91 75.38C230.91 97.22 227.91 126.38 227.15 133.83H20.8901C20.3701 130 19.15 120.27 18.47 110.18C16.88 86.76 19.58 82.51 20.47 81.76C21.3019 80.8857 22.405 80.3183 23.6 80.15C24.6 80.15 25.6801 80.92 27.0401 81.89C29.1901 83.42 32.1301 85.52 36.6701 85.52C38.7726 85.4884 40.8561 85.1169 42.84 84.42C50.26 81.94 54.51 76 54.2 68.53C53.88 60.73 48.74 53.66 42.2 52.07C40.6088 51.6577 38.9736 51.4395 37.33 51.42C34.6056 51.4697 31.9399 52.2205 29.59 53.6C27.2439 54.9514 24.5968 55.6939 21.8901 55.76C19.5201 55.76 18.1901 49.81 17.8901 38.06C17.6438 29.4319 18.3751 20.8036 20.07 12.34C45.07 12.57 82.8801 12.71 121.68 12.71C169.55 12.71 208.68 12.5 227.38 12.16H227.44ZM229.18 10.16C209.7 10.55 166.33 10.74 121.68 10.74C83.5101 10.74 44.41 10.6 18.48 10.35C18.48 10.35 15.4801 21.54 15.8901 38.14C16.1001 47.99 16.8901 57.79 21.8901 57.79H21.99C29.58 57.59 31.23 53.45 37.33 53.45C38.8117 53.4694 40.2857 53.6675 41.72 54.04C52.58 56.69 58.2601 77.18 42.1601 82.55C40.3827 83.179 38.5152 83.5167 36.6301 83.55C29.8001 83.55 27.4001 78.18 23.5601 78.18C22.3001 78.18 20.89 78.75 19.12 80.28C12 86.41 19.12 135.86 19.12 135.86H229C229 135.86 233 100.86 233 75.41C232.976 53.6091 231.75 31.8261 229.33 10.16H229.18Z" fill="url(#paint1_linear)"/>
<path d="M239.37 1.83999C239.37 2.14999 239.45 2.54999 239.5 3.06999C242.088 27.2071 243.393 51.4645 243.41 75.74C243.41 102.23 239.7 138.06 239.05 144.14H4.93012C2.69012 127.88 -1.39997 87.46 4.72003 82.07C6.37003 80.62 7.79011 79.91 9.05011 79.91C10.5701 79.91 11.9301 80.91 13.6401 82.15C16.0401 83.9 19.0301 86.08 23.7401 86.08C25.9743 86.0405 28.187 85.6352 30.2901 84.88C38.0901 82.22 42.54 75.88 42.21 67.88C41.85 59.5 36.48 51.88 29.71 50.22C28.0148 49.7757 26.2723 49.5373 24.5201 49.51C21.647 49.5798 18.8416 50.3966 16.3801 51.88C13.6052 53.5066 10.4652 54.4077 7.25006 54.5H7.17011C1.93011 54.5 1.60002 39.37 1.46002 32.91C1.16233 22.5497 2.07186 12.19 4.17011 2.03999C32.2901 2.30999 75.2701 2.46999 119.41 2.46999C174.23 2.46999 218.89 2.22999 239.41 1.82999L239.37 1.83999ZM240.32 0.829992C218.42 1.27999 169.66 1.48999 119.45 1.48999C76.54 1.48999 32.58 1.33999 3.45002 1.05999C3.45002 1.05999 0.120093 13.9 0.530093 32.95C0.780093 44.26 1.71005 55.52 7.24005 55.52H7.35004C15.89 55.29 17.74 50.52 24.59 50.52C26.2784 50.5397 27.9578 50.7681 29.59 51.2C41.8 54.2 48.18 77.77 30.08 83.93C28.0847 84.6553 25.9828 85.0439 23.8601 85.08C16.18 85.08 13.4901 78.91 9.17011 78.91C7.76011 78.91 6.17011 79.57 4.17011 81.32C-3.82989 88.37 4.17011 145.14 4.17011 145.14H240C240 145.14 244.46 105.02 244.46 75.74C244.413 50.7097 243.018 25.7002 240.28 0.819992L240.32 0.829992Z" fill="url(#paint2_linear)"/>
<defs>
<linearGradient id="paint0_linear" x1="338" y1="-185" x2="-1130.37" y2="-626.016" gradientUnits="userSpaceOnUse">
<stop offset="0.231157" stop-color="#9537F3"/>
<stop offset="0.500099" stop-color="#139CFF"/>
<stop offset="0.730366" stop-color="#6960FA"/>
<stop offset="0.892483" stop-color="#D219F2"/>
</linearGradient>
<linearGradient id="paint1_linear" x1="338" y1="-185" x2="-1152.27" y2="-610.411" gradientUnits="userSpaceOnUse">
<stop offset="0.231157" stop-color="#9537F3"/>
<stop offset="0.500099" stop-color="#139CFF"/>
<stop offset="0.730366" stop-color="#6960FA"/>
<stop offset="0.892483" stop-color="#D219F2"/>
</linearGradient>
<linearGradient id="paint2_linear" x1="334" y1="-185" x2="-1127.07" y2="-622.899" gradientUnits="userSpaceOnUse">
<stop offset="0.231157" stop-color="#9537F3"/>
<stop offset="0.500099" stop-color="#139CFF"/>
<stop offset="0.730366" stop-color="#6960FA"/>
<stop offset="0.892483" stop-color="#D219F2"/>
</linearGradient>
</defs>
</svg>
