<svg width="247" height="146" viewBox="0 0 247 146" fill="none" xmlns="http://www.w3.org/2000/svg">
<path d="M234.75 7.2C236.713 15.7527 238.004 24.4459 238.61 33.2C239.27 45.79 237.22 54.05 232.84 56.46C232.779 56.4983 232.711 56.5254 232.64 56.54C231.665 56.257 230.736 55.8361 229.88 55.29C225.716 52.7697 220.947 51.4253 216.08 51.4C214.243 51.4078 212.41 51.5684 210.6 51.88C202.07 53.32 197.41 63.97 197.84 73.42C198.35 84.53 205.34 92.23 215.66 93.02C216.3 93.02 216.95 93.09 217.61 93.09C221.573 92.9598 225.502 92.3178 229.3 91.18C231.286 90.5724 233.331 90.1768 235.4 90C236.48 90 236.64 90.25 236.84 90.56C237.27 91.23 237.99 93.07 237.99 97.83C237.99 105.58 235.19 129.74 234.11 138.83H11.89C11.27 133.93 10.1499 124.46 9.47995 114.64C7.66995 87.9 10.9 84.2 11.02 84.07C12.51 82.77 13.1599 82.73 13.2299 82.73C14.2158 83.0921 15.1274 83.6309 15.9199 84.32C18.4599 86.17 21.92 88.7 27.51 88.7C30.0126 88.6671 32.4926 88.2211 34.8499 87.38C43.7699 84.38 48.85 77.09 48.49 67.94C48.09 58.54 41.8799 49.94 34.0399 48.03C32.1552 47.5392 30.2175 47.2806 28.27 47.26C25.008 47.3164 21.8155 48.2118 19 49.86C16.749 51.2026 14.1987 51.9622 11.58 52.07C11.31 51.77 10.46 50.56 9.80996 46.67C9.23314 42.5178 8.93246 38.332 8.90994 34.14C8.69356 25.1754 9.39389 16.2122 11 7.39C38.35 7.64 78.92 7.79 120.55 7.79C171.79 7.79 213.92 7.56999 234.8 7.2H234.75ZM238 3.14C216.72 3.58 169.32 3.79 120.53 3.79C78.82 3.79 36.09 3.64 7.75998 3.36C7.75998 3.36 4.51995 15.8 4.91995 34.23C5.15995 45.23 6.05997 56.07 11.44 56.07H11.5399C19.8399 55.85 21.65 51.25 28.3 51.25C29.9236 51.2718 31.5387 51.49 33.11 51.9C44.98 54.9 51.18 77.61 33.59 83.58C31.6636 84.2736 29.637 84.6485 27.59 84.69C20.13 84.69 17.51 78.69 13.31 78.69C11.94 78.69 10.4 79.33 8.45999 81.03C0.679988 87.84 8.45999 142.79 8.45999 142.79H237.73C237.73 142.79 242.07 107.71 242.07 97.79C242.07 88.43 239.53 85.96 235.48 85.96C230.95 85.96 224.54 89.05 217.69 89.05C217.14 89.05 216.6 89.05 216.05 88.99C196.17 87.46 199.76 57.75 211.35 55.79C212.938 55.5115 214.547 55.3677 216.16 55.36C225.38 55.36 228.94 60.5 232.72 60.5C233.464 60.4939 234.193 60.2977 234.84 59.93C250.64 51.25 238.09 4.44 238.05 3.12L238 3.14Z" fill="url(#paint0_linear)"/>
<path d="M225.48 12.16V12.27C233.48 47.92 227.48 57.16 223.21 59.49C222.909 59.6739 222.563 59.7708 222.21 59.77C221.035 59.5614 219.918 59.1083 218.93 58.44C215.402 56.2981 211.357 55.1573 207.23 55.14C205.658 55.148 204.089 55.2852 202.54 55.55C195.71 56.7 191.99 65.47 192.34 73.28C192.67 80.56 196.69 88.62 206.97 89.4C207.5 89.4 208.06 89.46 208.61 89.46C212.056 89.3386 215.474 88.7808 218.78 87.8C220.705 87.2053 222.691 86.8296 224.7 86.68C226.19 86.68 228.7 86.68 228.7 95.33C228.7 102.83 225.82 127.09 225 133.83H21.12C20.61 130 19.4 120.28 18.73 110.21C17.15 86.76 19.83 82.5 20.68 81.76C21.4955 80.8911 22.5811 80.3237 23.76 80.15C24.76 80.15 25.76 80.91 27.14 81.88C29.27 83.42 32.14 85.52 36.68 85.52C38.7631 85.4897 40.8271 85.1181 42.79 84.42C50.14 81.93 54.35 75.99 54.04 68.51C53.71 60.73 48.62 53.66 42.19 52.07C40.6159 51.6574 38.9972 51.4391 37.37 51.42C34.6677 51.4704 32.0248 52.2216 29.7 53.6C27.3943 54.9524 24.7823 55.6957 22.11 55.76C20.63 55.76 19.75 52.89 19.36 51.18C18.5821 46.8502 18.1972 42.459 18.21 38.06C17.9727 29.433 18.6971 20.8065 20.37 12.34C45.11 12.57 82.46 12.71 120.81 12.71C168.28 12.71 207.1 12.5 225.48 12.16ZM227.1 10.16C207.85 10.55 164.96 10.74 120.81 10.74C83.07 10.74 44.41 10.6 18.81 10.35C18.81 10.35 15.87 21.54 16.24 38.14C16.46 47.99 17.24 57.79 22.14 57.79H22.23C29.74 57.59 31.37 53.45 37.4 53.45C38.8653 53.4693 40.3227 53.6674 41.74 54.04C52.48 56.69 58.09 77.18 42.18 82.55C40.4231 83.1783 38.5756 83.5161 36.71 83.55C29.96 83.55 27.59 78.18 23.79 78.18C22.55 78.18 21.15 78.75 19.4 80.28C12.4 86.41 19.4 135.86 19.4 135.86H226.84C226.84 135.86 230.77 104.29 230.77 95.36C230.77 86.94 228.47 84.71 224.77 84.71C220.68 84.71 214.88 87.49 208.68 87.49C208.19 87.49 207.68 87.49 207.19 87.49C189.19 86.11 192.46 59.37 202.94 57.6C204.381 57.3563 205.839 57.2292 207.3 57.22C215.63 57.22 218.86 61.85 222.3 61.85C222.974 61.8411 223.634 61.6622 224.22 61.33C238.52 53.52 227.16 11.4 227.12 10.21L227.1 10.16Z" fill="url(#paint1_linear)"/>
<path d="M241.16 1.82999C241.22 2.11999 241.3 2.48999 241.41 2.98999C242.41 7.57999 245.16 19.76 245.78 31.7C246.56 46.38 244 55.45 238.18 58.64C237.655 58.9384 237.064 59.1 236.46 59.11C235.19 59.11 233.83 58.37 232.1 57.43C228.253 55.0799 223.838 53.8215 219.33 53.79C217.6 53.8012 215.874 53.9551 214.17 54.25C207.17 55.43 203.17 65.04 203.58 73.25C203.93 81.05 208.2 89.68 219.13 90.52C219.71 90.52 220.3 90.59 220.91 90.59C224.744 90.4446 228.545 89.8129 232.22 88.71C234.53 88.0069 236.911 87.5674 239.32 87.4C242.32 87.4 245.14 88.76 245.14 98.62C245.14 107.81 241.45 138.52 240.76 144.12H5.19988C2.94988 127.86 -1.17014 87.44 4.98986 82.06C6.64986 80.6 8.07985 79.89 9.34985 79.89C10.8898 79.89 12.2498 80.89 13.9698 82.13C16.3898 83.88 19.3899 86.06 24.1299 86.06C26.3739 86.0208 28.5965 85.6154 30.7099 84.86C38.5499 82.2 43.0399 75.86 42.7099 67.86C42.3599 59.48 36.9599 51.86 30.1399 50.19C28.4378 49.7459 26.6887 49.5075 24.9299 49.48C22.0409 49.549 19.2192 50.3655 16.7399 51.85C13.9434 53.4771 10.7839 54.3779 7.54986 54.47H7.46984C2.19984 54.47 1.85984 39.34 1.71984 32.88C1.41809 22.5186 2.33441 12.1576 4.44988 2.00999C32.7399 2.27999 75.9799 2.43999 120.39 2.43999C175.62 2.43999 220.6 2.19999 241.17 1.78999L241.16 1.82999ZM241.99 0.789993C219.99 1.23999 170.9 1.44999 120.39 1.44999C77.2199 1.44999 32.9898 1.29999 3.65984 1.01999C3.65984 1.01999 0.309841 13.86 0.719841 32.91C0.969841 44.22 1.89984 55.48 7.46984 55.48H7.57989C16.1699 55.25 18.0399 50.48 24.9299 50.48C26.6181 50.5012 28.2973 50.7296 29.9299 51.16C42.2199 54.16 48.6399 77.73 30.4299 83.89C28.4206 84.615 26.3056 85.0035 24.1699 85.04C16.4499 85.04 13.7399 78.87 9.38988 78.87C7.96988 78.87 6.38988 79.53 4.38988 81.28C-3.66012 88.33 4.38988 145.1 4.38988 145.1H241.71C241.71 145.1 246.2 108.85 246.2 98.6C246.2 88.93 243.57 86.38 239.38 86.38C234.69 86.38 228.05 89.57 220.97 89.57C220.4 89.57 219.83 89.57 219.26 89.5C198.69 87.93 202.41 57.22 214.4 55.2C216.051 54.9095 217.724 54.7589 219.4 54.75C228.93 54.75 232.62 60.07 236.53 60.07C237.303 60.0617 238.06 59.8551 238.73 59.47C255 50.55 242 2.17999 242 0.819993L241.99 0.789993Z" fill="url(#paint2_linear)"/>
<defs>
<linearGradient id="paint0_linear" x1="861" y1="-189" x2="-607.735" y2="-623.809" gradientUnits="userSpaceOnUse">
<stop offset="0.231157" stop-color="#9537F3"/>
<stop offset="0.500099" stop-color="#139CFF"/>
<stop offset="0.730366" stop-color="#6960FA"/>
<stop offset="0.892483" stop-color="#D219F2"/>
</linearGradient>
<linearGradient id="paint1_linear" x1="861" y1="-185" x2="-610.197" y2="-616.37" gradientUnits="userSpaceOnUse">
<stop offset="0.231157" stop-color="#9537F3"/>
<stop offset="0.500099" stop-color="#139CFF"/>
<stop offset="0.730366" stop-color="#6960FA"/>
<stop offset="0.892483" stop-color="#D219F2"/>
</linearGradient>
<linearGradient id="paint2_linear" x1="861" y1="-183" x2="-607.83" y2="-614.735" gradientUnits="userSpaceOnUse">
<stop offset="0.231157" stop-color="#9537F3"/>
<stop offset="0.500099" stop-color="#139CFF"/>
<stop offset="0.730366" stop-color="#6960FA"/>
<stop offset="0.892483" stop-color="#D219F2"/>
</linearGradient>
</defs>
</svg>
