<svg width="419" height="146" viewBox="0 0 419 146" fill="none" xmlns="http://www.w3.org/2000/svg">
<path d="M53.7704 8H98.1204C151.77 8.09 241.55 8.24 309.74 8.24C360.31 8.24 391.48 8.16 402.6 7.99C404.73 17.08 410.72 45.08 410.72 72.99C410.72 93.85 406.66 114.75 403.98 128.58C403.15 132.85 402.49 136.24 402.11 138.83H53.5504C53.7404 136.33 53.8904 132.74 53.9704 127.55C54.1397 118.182 53.8059 108.812 52.9704 99.48C51.2304 82.57 44.0004 79 38.2804 79C36.3948 79.0286 34.5266 79.3665 32.7504 80L32.0004 80.26C29.4784 81.2743 26.8053 81.8623 24.0904 82C20.1904 82 16.9804 80.27 13.9704 76.55C10.6004 72.38 9.06041 63.06 12.2504 56.37C14.2504 52.13 17.7904 49.98 22.7004 49.98H22.7704C31.6304 49.98 34.0104 52.6 36.3004 55.09C38.3004 57.24 40.7504 59.92 45.8004 59.92C46.5163 59.9174 47.2312 59.8673 47.9404 59.77C49.0483 59.6138 50.1112 59.2269 51.0603 58.6344C52.0094 58.0419 52.8236 57.2568 53.4504 56.33C59.6904 47.67 55.8704 20.19 53.7704 7.95V8ZM405.77 3.95C398.1 4.18 359.27 4.26 309.77 4.26C210.76 4.27 69.1604 4 49.0004 4C49.0004 4 58.7504 54.37 47.4404 55.86C46.9064 55.9288 46.3688 55.9655 45.8304 55.97C37.6704 55.97 40.6204 46.1 22.8304 46.03H22.7504C4.46041 46.03 3.47039 69.92 10.9104 79.12C15.2704 84.5 19.9104 86.05 24.1404 86.05C28.0804 86.05 31.6104 84.69 34.0904 83.85C35.4509 83.3558 36.8833 83.0889 38.3304 83.06C42.8204 83.06 47.6304 86.24 49.0204 99.92C50.8304 117.62 49.8704 141.53 49.0204 142.86H405.77C405.77 135.86 414.77 104.3 414.77 73.02C414.77 38.33 405.77 4.02 405.77 4.02V3.95Z" fill="url(#paint0_linear)"/>
<path d="M59.5904 12.13C66.7704 12.13 82.1303 12.13 102.47 12.19C153.94 12.27 240.1 12.41 305.71 12.41C356.47 12.41 386.62 12.33 395.48 12.16C397.22 18.71 403.99 45.89 403.99 72.98C403.99 92.14 399.92 111.28 397.22 123.98C396.22 128.74 395.46 132.28 395.15 134.69H59.5504C59.8304 132.16 60.0104 128.17 60.0904 122.75C60.2436 114.276 59.9398 105.801 59.1804 97.36C58.0204 85.98 54.0704 80.2 47.4504 80.2C45.9114 80.2245 44.3872 80.505 42.9404 81.03L42.2604 81.26C39.7889 82.2469 37.169 82.8115 34.5104 82.93C30.5104 82.93 27.0504 81.11 24.0204 77.35C20.5604 73.08 19.0204 63.97 22.2504 57.22C23.7204 54.14 26.8204 50.47 33.2504 50.47H33.3204C42.1104 50.47 44.6303 53.24 46.8503 55.65C48.5203 57.47 50.4204 59.52 54.3004 59.52C54.879 59.5175 55.4569 59.4774 56.0304 59.4C56.8177 59.2861 57.5721 59.0071 58.2441 58.5815C58.9162 58.1558 59.4908 57.5931 59.9304 56.93C65.6104 49.06 61.1804 21.07 59.5904 12.17V12.13ZM396.99 10.17C389.99 10.38 352.99 10.45 305.71 10.45C211.16 10.45 75.5804 10.17 57.1904 10.17C57.1904 10.17 66.0704 56.06 55.7704 57.42C55.2831 57.4855 54.792 57.5189 54.3004 57.52C46.8604 57.52 49.5504 48.52 33.3004 48.52H33.2303C16.5603 48.52 15.6604 70.28 22.4404 78.66C26.4404 83.57 30.6604 84.98 34.4404 84.98C37.5549 84.8297 40.6215 84.1535 43.5104 82.98C44.7537 82.535 46.0602 82.2919 47.3804 82.26C51.4604 82.26 55.8504 85.16 57.1204 97.62C58.7604 113.75 57.8904 135.54 57.1204 136.75H397C397 130.39 406 101.6 406 73.08C406 41.48 397 10.23 397 10.23L396.99 10.17Z" fill="url(#paint1_linear)"/>
<path d="M46.3897 1.82C53.8497 1.82 71.7997 1.82 96.1197 1.89C150.76 1.99 242.22 2.15 311.59 2.15C367.69 2.15 400.42 2.04 408.96 1.84C410.25 7.3 417.74 40.45 417.74 73.39C417.74 95.39 413.65 117.29 410.95 131.77C409.82 137.77 408.95 142.3 408.79 144.96H46.4197C47.3396 138.82 47.7797 116.7 46.1797 100.96C44.9397 88.68 40.8597 82.45 34.0597 82.45C32.4416 82.4762 30.8393 82.7737 29.3197 83.33L28.5497 83.59C25.5972 84.772 22.4667 85.4482 19.2896 85.59C14.2896 85.59 10.0196 83.34 6.28965 78.72C1.56965 72.85 0.579672 61.63 4.12967 54.21C5.97967 50.35 9.8497 45.76 17.8397 45.76H17.9197C28.5297 45.76 31.6097 49.17 34.3297 52.13C36.2197 54.2 38.0097 56.13 41.8897 56.13C42.4953 56.1287 43.1001 56.0852 43.6997 56C44.4234 55.8943 45.1163 55.6353 45.7319 55.2404C46.3475 54.8455 46.8718 54.3237 47.2697 53.71C53.8097 44.64 47.6997 8.95 46.3897 1.81V1.82ZM409.74 0.809998C401.74 1.05 362.09 1.14 311.59 1.14C210.59 1.14 66.1997 0.809998 45.1897 0.809998C45.1897 0.809998 55.3397 53.46 43.5597 55.01C43.0062 55.0866 42.4484 55.1267 41.8897 55.13C33.3897 55.13 36.4597 44.82 17.8897 44.74H17.7997C-1.20034 44.74 -2.27035 69.74 5.47965 79.32C10.0096 84.95 14.8697 86.57 19.2497 86.57C23.3397 86.57 27.0196 85.15 29.5996 84.27C31.0192 83.7604 32.5118 83.4835 34.0197 83.45C38.6897 83.45 43.6997 86.76 45.1497 101.07C47.0297 119.57 46.0297 144.56 45.1497 145.95H409.7C409.7 138.69 418.7 105.95 418.7 73.38C418.7 36.97 409.7 0.809998 409.7 0.809998H409.74Z" fill="url(#paint2_linear)"/>
<defs>
<linearGradient id="paint0_linear" x1="827" y1="-189" x2="-1184.68" y2="36.1763" gradientUnits="userSpaceOnUse">
<stop offset="0.231157" stop-color="#9537F3"/>
<stop offset="0.500099" stop-color="#139CFF"/>
<stop offset="0.730366" stop-color="#6960FA"/>
<stop offset="0.892483" stop-color="#D219F2"/>
</linearGradient>
<linearGradient id="paint1_linear" x1="831" y1="-185" x2="-1201.18" y2="105.081" gradientUnits="userSpaceOnUse">
<stop offset="0.231157" stop-color="#9537F3"/>
<stop offset="0.500099" stop-color="#139CFF"/>
<stop offset="0.730366" stop-color="#6960FA"/>
<stop offset="0.892483" stop-color="#D219F2"/>
</linearGradient>
<linearGradient id="paint2_linear" x1="831" y1="-189" x2="-1171.55" y2="-3.3149" gradientUnits="userSpaceOnUse">
<stop offset="0.231157" stop-color="#9537F3"/>
<stop offset="0.500099" stop-color="#139CFF"/>
<stop offset="0.730366" stop-color="#6960FA"/>
<stop offset="0.892483" stop-color="#D219F2"/>
</linearGradient>
</defs>
</svg>
