<svg width="676" height="146" viewBox="0 0 676 146" fill="none" xmlns="http://www.w3.org/2000/svg">
<path d="M17.9999 7.17C58.3899 7.48 233 7.68 383 7.68C535.33 7.68 638.17 7.5 662.35 7.19C664.308 15.7436 665.599 24.4364 666.21 33.19C666.87 45.78 664.82 54.04 660.43 56.45C660.368 56.4868 660.3 56.5138 660.23 56.53C659.257 56.2426 658.328 55.822 657.47 55.28C653.309 52.7609 648.544 51.4166 643.68 51.39C641.843 51.3972 640.01 51.5578 638.2 51.87C629.67 53.3 625 64 625.44 73.4C625.94 84.51 632.94 92.21 643.26 93C643.89 93 644.55 93.07 645.26 93.07C649.223 92.9398 653.152 92.2978 656.95 91.16C658.921 90.563 660.948 90.1742 663 90C664.09 90 664.25 90.25 664.45 90.56C664.87 91.23 665.59 93.07 665.59 97.83C665.59 105.58 662.8 129.74 661.71 138.83H18.2099C12.183 117.401 9.05514 95.2603 8.90991 73C8.90991 36.18 15.5199 14.13 17.9899 7.19L17.9999 7.17ZM665.57 3.19C647.35 3.57 520.4 3.73 383 3.73C222.79 3.73 48.3499 3.51 15.2499 3.19C15.2499 3.19 4.90991 26.37 4.90991 73.03C4.98633 96.6856 8.46874 120.207 15.2499 142.87H665.25C665.25 142.87 669.58 107.79 669.58 97.87C669.58 88.45 667 86 663 86C658.48 86 652.06 89.09 645.22 89.09C644.667 89.09 644.117 89.07 643.57 89.03C623.7 87.5 627.29 57.79 638.88 55.83C640.468 55.5515 642.077 55.4077 643.69 55.4C652.9 55.4 656.47 60.54 660.24 60.54C660.987 60.5339 661.72 60.3377 662.37 59.97C678.17 51.29 665.62 4.48 665.58 3.16L665.57 3.19Z" fill="url(#paint0_linear)"/>
<path d="M26 12.14C62.45 12.43 234.29 12.61 381.66 12.61C533.1 12.61 634.14 12.44 654.35 12.15V12.3C662.9 47.9 656.48 57.13 651.89 59.47C651.536 59.6599 651.142 59.7627 650.74 59.77C649.448 59.5718 648.209 59.1124 647.1 58.42C643.308 56.2751 639.026 55.1453 634.67 55.14C632.995 55.147 631.323 55.2841 629.67 55.55C622.46 56.68 618.49 65.38 618.82 73.15C619.13 80.49 623.38 88.62 634.39 89.4C634.957 89.44 635.537 89.46 636.13 89.46C639.806 89.3413 643.456 88.784 647 87.8C649.099 87.206 651.254 86.8307 653.43 86.68C655.18 86.68 657.82 86.68 657.82 95.33C657.82 102.83 654.73 127.11 653.82 133.83H26.14C20.0049 114.13 16.8138 93.6324 16.67 73C16.67 37.41 24 17 26 12.14ZM656 10.14C638.31 10.48 515.08 10.62 381.71 10.62C226.19 10.62 56.87 10.43 24.71 10.14C24.71 10.14 14.71 30.99 14.71 72.99C14.7878 94.3299 18.1609 115.53 24.71 135.84H655.64C655.64 135.84 659.85 104.27 659.85 95.34C659.85 86.92 657.39 84.69 653.46 84.69C649.06 84.69 642.84 87.47 636.19 87.47C635.66 87.47 635.13 87.47 634.6 87.47C615.3 86 618.79 59.29 630 57.52C631.545 57.2762 633.106 57.1492 634.67 57.14C643.61 57.14 647.07 61.77 650.74 61.77C651.458 61.7628 652.164 61.5845 652.8 61.25C668.18 53.44 656 11.32 656 10.13V10.14Z" fill="url(#paint1_linear)"/>
<path d="M11.16 1C47.7 1.34 228.62 1.55 383.66 1.55C544.25 1.55 650.66 1.35 669.58 1.01C669.65 1.3 669.73 1.67 669.84 2.18C672.011 11.7221 673.442 21.4176 674.12 31.18C674.88 46.04 672.37 55.18 666.66 58.44C666.167 58.7728 665.594 58.9663 665 59C663.77 59 662.43 58.26 660.75 57.31C656.991 54.9384 652.644 53.6638 648.2 53.63C646.503 53.6364 644.81 53.7903 643.14 54.09C636.22 55.29 632.36 65.09 632.75 73.38C633.12 81.23 637.32 89.92 648 90.77C648.57 90.77 649.16 90.84 649.75 90.84C653.517 90.6937 657.249 90.0549 660.85 88.94C663.107 88.2284 665.44 87.7821 667.8 87.61C670.8 87.61 673.49 88.98 673.49 98.97C673.49 108.27 669.87 139.35 669.2 144.97H11.2C4.54839 121.554 1.11686 97.3418 1 73C1 29.2 9.59 5.06 11.16 1ZM670.41 0C651.92 0.39 523.1 0.56 383.66 0.56C221.09 0.56 44.07 0.34 10.49 0C10.49 0 0 24.22 0 73C0.070463 97.7038 3.60144 122.276 10.49 146H670.09C670.09 146 674.49 109.34 674.49 99C674.49 89.22 671.91 86.64 667.8 86.64C663.21 86.64 656.7 89.87 649.8 89.87C649.25 89.87 648.69 89.87 648.13 89.8C627.96 88.21 631.61 57.15 643.36 55.1C644.974 54.8133 646.61 54.6661 648.25 54.66C657.6 54.66 661.25 60.03 665.05 60.03C665.807 60.0223 666.548 59.8153 667.2 59.43C683.2 50.37 670.5 1.43 670.46 0.07L670.41 0Z" fill="url(#paint2_linear)"/>
<path d="M53.056 60.648H77.968L71.824 93H64.912L69.952 66.552H58.912L53.824 93H46.912L53.056 60.648ZM97.0885 86.616L97.5685 91.608C95.1045 92.856 92.1925 93.48 88.8325 93.48C85.5365 93.48 83.0085 92.616 81.2485 90.888C79.5205 89.128 78.6565 86.696 78.6565 83.592C78.6565 81.16 79.1845 78.856 80.2405 76.68C81.3285 74.472 82.9285 72.648 85.0405 71.208C87.1845 69.736 89.6165 69 92.3365 69C94.7365 69 96.6885 69.64 98.1925 70.92C99.7285 72.2 100.497 73.912 100.497 76.056C100.497 81.56 95.4245 84.184 85.2805 83.928C85.2805 84.856 85.5205 85.656 86.0005 86.328C86.9285 87.512 88.4325 88.104 90.5125 88.104C92.8485 88.104 95.0405 87.608 97.0885 86.616ZM94.0165 76.056V76.008C94.0165 75.432 93.7765 74.968 93.2965 74.616C92.8485 74.232 92.2405 74.04 91.4725 74.04C90.0005 74.04 88.7845 74.536 87.8245 75.528C86.8645 76.52 86.2405 77.64 85.9525 78.888C88.7365 78.92 90.7685 78.728 92.0485 78.312C93.3605 77.864 94.0165 77.112 94.0165 76.056ZM119.167 87L119.215 92.232C117.487 93.064 115.263 93.48 112.543 93.48C109.599 93.48 107.215 92.632 105.391 90.936C103.567 89.208 102.655 86.856 102.655 83.88C102.655 79.688 104.095 76.168 106.975 73.32C109.887 70.472 113.551 69.048 117.967 69.048C119.823 69.048 121.423 69.32 122.767 69.864L121.039 75.144C120.111 74.76 119.055 74.568 117.871 74.568C115.503 74.568 113.583 75.416 112.111 77.112C110.639 78.808 109.903 80.808 109.903 83.112C109.903 84.68 110.335 85.88 111.199 86.712C112.063 87.544 113.167 87.96 114.511 87.96C116.015 87.96 117.567 87.64 119.167 87ZM127.165 69.528H134.077L132.445 78.168H139.597L141.229 69.528H148.141L143.677 93H136.765L138.589 83.496H131.437L129.661 93H122.749L127.165 69.528ZM153.788 69.528H160.7L158.3 82.104C158.076 83.384 157.964 84.424 157.964 85.224C157.964 87.016 158.748 87.912 160.316 87.912C161.532 87.912 162.668 87.24 163.724 85.896C164.812 84.52 165.564 82.696 165.98 80.424L168.044 69.528H174.956L171.98 85.368C171.66 86.936 171.228 89.48 170.684 93H164.588L165.02 89.16H164.924C162.652 92.072 159.964 93.528 156.86 93.528C154.94 93.528 153.452 92.984 152.396 91.896C151.34 90.776 150.812 89.128 150.812 86.952C150.812 85.64 150.972 84.2 151.292 82.632L153.788 69.528ZM189.46 69.528H196.372L193.972 82.104C193.748 83.384 193.636 84.424 193.636 85.224C193.636 87.016 194.42 87.912 195.988 87.912C197.204 87.912 198.34 87.24 199.396 85.896C200.484 84.52 201.236 82.696 201.652 80.424L203.716 69.528H210.628L207.652 85.368C207.332 86.936 206.9 89.48 206.356 93H200.26L200.692 89.16H200.596C198.324 92.072 195.636 93.528 192.532 93.528C190.612 93.528 189.124 92.984 188.068 91.896C187.012 90.776 186.484 89.128 186.484 86.952C186.484 85.64 186.644 84.2 186.964 82.632L189.46 69.528ZM216.36 83.112L217.032 78.648H219.768C221.08 78.648 222.216 78.456 223.176 78.072C224.168 77.656 224.664 77.032 224.664 76.2C224.664 75.464 224.344 74.904 223.704 74.52C223.096 74.136 222.296 73.944 221.304 73.944C219.352 73.944 217.416 74.44 215.496 75.432L214.344 71.256C216.968 69.816 219.816 69.096 222.888 69.096C224.36 69.096 225.72 69.256 226.968 69.576C228.248 69.864 229.4 70.488 230.424 71.448C231.448 72.408 231.96 73.64 231.96 75.144C231.96 76.648 231.368 77.88 230.184 78.84C229.032 79.768 227.608 80.376 225.912 80.664V80.76C227.384 81.016 228.632 81.608 229.656 82.536C230.712 83.432 231.24 84.648 231.24 86.184C231.24 87.944 230.6 89.4 229.32 90.552C228.072 91.704 226.648 92.472 225.048 92.856C223.48 93.24 221.816 93.432 220.056 93.432C216.28 93.432 213.176 92.648 210.744 91.08L212.52 86.472C214.696 87.752 216.952 88.392 219.288 88.392C220.536 88.392 221.624 88.168 222.552 87.72C223.48 87.24 223.944 86.568 223.944 85.704C223.944 83.976 222.344 83.112 219.144 83.112H216.36ZM247.682 69.528H254.45L252.626 79.176H253.298L261.122 69.528H269.282L258.962 79.992C260.914 80.792 262.242 83.112 262.946 86.952C263.554 89.992 264.066 92.008 264.482 93H257.666C257.538 92.648 257.394 92.184 257.234 91.608C257.074 91 256.898 90.28 256.706 89.448C256.546 88.616 256.402 87.944 256.274 87.432C255.922 85.96 255.458 84.888 254.882 84.216C254.306 83.544 253.49 83.208 252.434 83.208H251.858L249.986 93H243.218L247.682 69.528ZM271.866 69.528H278.778L276.378 82.104C276.154 83.384 276.042 84.424 276.042 85.224C276.042 87.016 276.826 87.912 278.394 87.912C279.61 87.912 280.746 87.24 281.802 85.896C282.89 84.52 283.642 82.696 284.058 80.424L286.122 69.528H293.034L290.058 85.368C289.738 86.936 289.306 89.48 288.762 93H282.666L283.098 89.16H283.002C280.73 92.072 278.042 93.528 274.938 93.528C273.018 93.528 271.53 92.984 270.474 91.896C269.418 90.776 268.89 89.128 268.89 86.952C268.89 85.64 269.05 84.2 269.37 82.632L271.866 69.528ZM298.821 69.528H305.733L304.101 78.168H311.253L312.885 69.528H319.797L315.333 93H308.421L310.245 83.496H303.093L301.317 93H294.405L298.821 69.528ZM332.11 93.528H332.062C329.054 93.528 326.638 92.648 324.814 90.888C322.99 89.096 322.078 86.744 322.078 83.832C322.078 79.704 323.39 76.2 326.014 73.32C328.638 70.44 331.998 69 336.094 69C339.166 69 341.598 69.928 343.39 71.784C345.182 73.608 346.078 75.912 346.078 78.696C346.078 82.984 344.75 86.536 342.094 89.352C339.47 92.136 336.142 93.528 332.11 93.528ZM332.974 88.248H333.022C334.75 88.248 336.158 87.224 337.246 85.176C338.366 83.128 338.926 80.984 338.926 78.744C338.926 77.496 338.622 76.44 338.014 75.576C337.438 74.712 336.51 74.28 335.23 74.28C333.406 74.28 331.95 75.32 330.862 77.4C329.774 79.448 329.23 81.544 329.23 83.688C329.23 85.064 329.566 86.168 330.238 87C330.91 87.832 331.822 88.248 332.974 88.248ZM358.054 102.504L360.214 91.272H360.118C358.87 92.776 357.174 93.528 355.03 93.528C353.238 93.528 351.782 92.776 350.662 91.272C349.542 89.768 348.982 87.64 348.982 84.888C348.982 82.296 349.446 79.8 350.374 77.4C351.302 74.968 352.646 72.968 354.406 71.4C356.198 69.8 358.182 69 360.358 69C361.254 69 362.022 69.224 362.662 69.672C363.302 70.12 363.766 70.648 364.054 71.256H364.15L366.454 58.92H372.646L370.198 71.4H370.294C371.702 69.8 373.398 69 375.382 69C377.462 69 379.03 69.832 380.086 71.496C381.142 73.128 381.67 75.192 381.67 77.688C381.67 80.376 381.206 82.92 380.278 85.32C379.382 87.72 378.07 89.688 376.342 91.224C374.614 92.76 372.678 93.528 370.534 93.528C369.67 93.528 368.87 93.336 368.134 92.952C367.398 92.536 366.87 92.008 366.55 91.368H366.454L364.438 102.504H358.054ZM361.27 74.28H361.222C359.75 74.28 358.486 75.384 357.43 77.592C356.406 79.768 355.894 81.944 355.894 84.12C355.894 85.304 356.102 86.248 356.518 86.952C356.966 87.624 357.558 87.96 358.294 87.96C359.094 87.96 359.766 87.64 360.31 87C360.886 86.36 361.286 85.576 361.51 84.648L362.806 78.264C362.966 77.624 363.046 76.92 363.046 76.152C363.014 75.672 362.838 75.24 362.518 74.856C362.198 74.472 361.782 74.28 361.27 74.28ZM372.55 74.568H372.502C371.446 74.568 370.582 75.144 369.91 76.296C369.526 77.128 369.174 78.264 368.854 79.704C368.534 81.4 368.198 83.128 367.846 84.888C367.686 85.784 367.75 86.408 368.038 86.76C368.422 87.72 369.142 88.136 370.198 88.008C371.446 87.848 372.518 86.744 373.414 84.696C374.342 82.648 374.806 80.568 374.806 78.456C374.806 77.336 374.614 76.408 374.23 75.672C373.878 74.936 373.318 74.568 372.55 74.568ZM387.975 69.528H394.887L392.487 82.104C392.263 83.384 392.151 84.424 392.151 85.224C392.151 87.016 392.935 87.912 394.503 87.912C395.719 87.912 396.855 87.24 397.911 85.896C398.999 84.52 399.751 82.696 400.167 80.424L402.231 69.528H409.143L406.167 85.368C405.847 86.936 405.415 89.48 404.871 93H398.775L399.207 89.16H399.111C396.839 92.072 394.151 93.528 391.047 93.528C389.127 93.528 387.639 92.984 386.583 91.896C385.527 90.776 384.999 89.128 384.999 86.952C384.999 85.64 385.159 84.2 385.479 82.632L387.975 69.528ZM416.899 69.528H435.379L430.915 93H424.051L427.459 74.856H422.275L421.363 79.32C420.275 84.888 418.563 88.68 416.227 90.696C414.403 92.456 411.971 93.336 408.931 93.336L408.499 87.864C409.875 87.768 411.011 87.304 411.907 86.472C413.315 85.192 414.371 82.76 415.075 79.176L416.899 69.528ZM441.423 69.528H448.191L445.887 78.552L445.935 78.6C447.567 77.16 449.647 76.44 452.175 76.44C454.127 76.44 455.743 77.016 457.023 78.168C458.303 79.32 458.943 80.904 458.943 82.92C458.943 85.8 457.791 88.28 455.487 90.36C453.183 92.408 449.967 93.432 445.839 93.432C440.431 93.432 437.727 91.464 437.727 87.528C437.727 86.44 437.967 84.936 438.447 83.016L441.423 69.528ZM447.087 88.536H447.135C448.415 88.536 449.567 88.136 450.591 87.336C451.647 86.504 452.175 85.448 452.175 84.168C452.175 83.304 451.919 82.632 451.407 82.152C450.927 81.64 450.255 81.384 449.391 81.384C448.335 81.384 447.391 81.72 446.559 82.392C445.759 83.032 445.215 83.736 444.927 84.504C444.703 85.08 444.591 85.688 444.591 86.328C444.591 87.8 445.423 88.536 447.087 88.536ZM467.084 69.528H475.772L476.684 78.648C476.812 79.8 476.956 81.64 477.116 84.168H477.212C477.788 82.856 478.812 80.744 480.284 77.832L484.652 69.528H493.436L490.316 93H483.932L485.372 83.592C485.692 81.288 486.124 78.68 486.668 75.768H486.476C485.996 76.888 484.828 79.304 482.972 83.016L478.028 92.616H472.748L471.836 83.304C471.548 80.168 471.34 77.64 471.212 75.72H471.02C470.156 79.88 469.58 82.552 469.292 83.736L466.988 93H460.892L467.084 69.528ZM506.392 93.528H506.344C503.336 93.528 500.92 92.648 499.096 90.888C497.272 89.096 496.36 86.744 496.36 83.832C496.36 79.704 497.672 76.2 500.296 73.32C502.92 70.44 506.28 69 510.376 69C513.448 69 515.88 69.928 517.672 71.784C519.464 73.608 520.36 75.912 520.36 78.696C520.36 82.984 519.032 86.536 516.376 89.352C513.752 92.136 510.424 93.528 506.392 93.528ZM507.256 88.248H507.304C509.032 88.248 510.44 87.224 511.528 85.176C512.648 83.128 513.208 80.984 513.208 78.744C513.208 77.496 512.904 76.44 512.296 75.576C511.72 74.712 510.792 74.28 509.512 74.28C507.688 74.28 506.232 75.32 505.144 77.4C504.056 79.448 503.512 81.544 503.512 83.688C503.512 85.064 503.848 86.168 504.52 87C505.192 87.832 506.104 88.248 507.256 88.248ZM537.092 69H537.14C539.796 69 541.86 69.48 543.332 70.44C544.836 71.4 545.588 72.84 545.588 74.76C545.588 76.168 545.028 77.368 543.908 78.36C542.82 79.32 541.556 79.992 540.116 80.376V80.472C541.46 80.632 542.612 81.128 543.572 81.96C544.532 82.792 545.012 83.912 545.012 85.32C545.012 86.792 544.612 88.088 543.812 89.208C543.044 90.296 542.02 91.144 540.74 91.752C539.46 92.328 538.132 92.76 536.756 93.048C535.38 93.336 534.004 93.48 532.628 93.48C526.484 93.48 523.412 91.064 523.412 86.232C523.412 83.704 523.94 80.92 524.996 77.88C526.084 74.84 527.588 72.616 529.508 71.208C531.556 69.736 534.084 69 537.092 69ZM536.564 73.704H536.516C534.148 73.704 532.452 75.576 531.428 79.32C534.02 78.936 535.86 78.488 536.948 77.976C538.292 77.336 538.964 76.536 538.964 75.576C538.964 75 538.74 74.552 538.292 74.232C537.844 73.88 537.268 73.704 536.564 73.704ZM534.5 83.016H534.452C533.108 83.016 531.828 83.24 530.612 83.688C530.42 84.52 530.324 85.256 530.324 85.896C530.324 87.784 531.364 88.728 533.444 88.728C534.788 88.728 535.876 88.44 536.708 87.864C537.572 87.256 538.004 86.488 538.004 85.56C538.004 83.864 536.836 83.016 534.5 83.016Z" fill="white"/>
<defs>
<linearGradient id="paint0_linear" x1="1829" y1="-183" x2="-86.2757" y2="879.093" gradientUnits="userSpaceOnUse">
<stop offset="0.231157" stop-color="#9537F3"/>
<stop offset="0.500099" stop-color="#139CFF"/>
<stop offset="0.730366" stop-color="#6960FA"/>
<stop offset="0.892483" stop-color="#D219F2"/>
</linearGradient>
<linearGradient id="paint1_linear" x1="1825" y1="-183" x2="-15.7955" y2="992.504" gradientUnits="userSpaceOnUse">
<stop offset="0.231157" stop-color="#9537F3"/>
<stop offset="0.500099" stop-color="#139CFF"/>
<stop offset="0.730366" stop-color="#6960FA"/>
<stop offset="0.892483" stop-color="#D219F2"/>
</linearGradient>
<linearGradient id="paint2_linear" x1="1829" y1="-183" x2="-115.018" y2="827.077" gradientUnits="userSpaceOnUse">
<stop offset="0.231157" stop-color="#9537F3"/>
<stop offset="0.500099" stop-color="#139CFF"/>
<stop offset="0.730366" stop-color="#6960FA"/>
<stop offset="0.892483" stop-color="#D219F2"/>
</linearGradient>
</defs>
</svg>
